# xmcd CD database file
#
# Track frame offsets:
#	150
#	18135
#	36806
#	60150
#	75495
#	93507
#	114948
#	130082
#	149265
#	165222
#	182826
#	200989
#	217062
#	232913
#	247955
#	263124
#	278285
#	294485
#	311105
#
# Disc length: 4346 seconds
#
# Revision: 3
# Processed by: cddbd v1.4PL0 Copyright (c) Steve Scherf et al.
# Submitted via: CDex 1.40Beta9
#
DISCID=fb10f813
DTITLE=Various Artist - Bravo Hits 30  CD2
DYEAR=1900
DGENRE=
TTITLE0=Das Bo - Türlich, türlich
TTITLE1=Xavier Naidoo - Seine Strassen
TTITLE2=Echt - Junimond
TTITLE3=Verena - Ist das alles
TTITLE4=Fünf Sterne Deluxe - Die Leute
TTITLE5=DJ Tomekk - Ich lebe für HipHop
TTITLE6=Mary Mary - Shackles
TTITLE7=Mya - The best of my
TTITLE8=The Underdog Project - Summer Jam
TTITLE9=Craig David - Fill me in
TTITLE10=Artful Dodger and Robbie Craig - Woman Trouble
TTITLE11=DJ Luck and Mc Neat - Masterblaster 2000
TTITLE12=Sisqo - Thong Song
TTITLE13=Black Legend - You see the Trouble with me
TTITLE14=Southside Rockers - Jump
TTITLE15=King Africa - La Bomba
TTITLE16=Joakino - Venga Venga
TTITLE17=Dee Jay Ötzi - Hey Baby
TTITLE18=Soap Allstars - Only with you
EXTD=
EXTT0=
EXTT1=
EXTT2=
EXTT3=
EXTT4=
EXTT5=
EXTT6=
EXTT7=
EXTT8=
EXTT9=
EXTT10=
EXTT11=
EXTT12=
EXTT13=
EXTT14=
EXTT15=
EXTT16=
EXTT17=
EXTT18=
PLAYORDER=
